<mxfile host="app.diagrams.net" modified="2023-05-06T07:55:54.696Z" agent="Mozilla/5.0 (Windows NT 10.0; WOW64) AppleWebKit/537.36 (KHTML, like Gecko) Chrome/108.0.5359.95 Safari/537.36" etag="ZSjbTxjyLdlHg68myWU6" version="21.2.9" type="github">
  <diagram name="第 1 页" id="m9xixZ9ksChGnyFKYOYd">
    <mxGraphModel dx="985" dy="526" grid="1" gridSize="10" guides="1" tooltips="1" connect="1" arrows="1" fold="1" page="1" pageScale="1" pageWidth="827" pageHeight="1169" math="0" shadow="0">
      <root>
        <mxCell id="0" />
        <mxCell id="1" parent="0" />
        <mxCell id="v4xjxvE_m-lczTURGx-s-1" value="Linear + ReLu" style="rounded=0;whiteSpace=wrap;html=1;fillColor=#dae8fc;strokeColor=#6c8ebf;" vertex="1" parent="1">
          <mxGeometry x="120" y="430" width="110" height="30" as="geometry" />
        </mxCell>
        <mxCell id="v4xjxvE_m-lczTURGx-s-2" value="Linear + ReLu" style="rounded=0;whiteSpace=wrap;html=1;fillColor=#fff2cc;strokeColor=#d6b656;" vertex="1" parent="1">
          <mxGeometry x="410" y="430" width="110" height="30" as="geometry" />
        </mxCell>
        <mxCell id="v4xjxvE_m-lczTURGx-s-3" value="Linear + ReLu" style="rounded=0;whiteSpace=wrap;html=1;fillColor=#7EA6E0;strokeColor=#6c8ebf;" vertex="1" parent="1">
          <mxGeometry x="250" y="430" width="110" height="30" as="geometry" />
        </mxCell>
        <mxCell id="v4xjxvE_m-lczTURGx-s-4" value="Linear + ReLu" style="rounded=0;whiteSpace=wrap;html=1;fillColor=#FFD966;strokeColor=#d6b656;" vertex="1" parent="1">
          <mxGeometry x="540" y="430" width="110" height="30" as="geometry" />
        </mxCell>
        <mxCell id="v4xjxvE_m-lczTURGx-s-5" value="&lt;font style=&quot;font-size: 15px;&quot;&gt;Item embedding&lt;/font&gt;" style="rounded=0;whiteSpace=wrap;html=1;" vertex="1" parent="1">
          <mxGeometry x="120" y="480" width="240" height="30" as="geometry" />
        </mxCell>
        <mxCell id="v4xjxvE_m-lczTURGx-s-6" value="&lt;font style=&quot;font-size: 15px;&quot;&gt;User embedding&lt;/font&gt;" style="rounded=0;whiteSpace=wrap;html=1;" vertex="1" parent="1">
          <mxGeometry x="410" y="480" width="240" height="30" as="geometry" />
        </mxCell>
        <mxCell id="v4xjxvE_m-lczTURGx-s-7" value="" style="endArrow=none;html=1;rounded=0;endFill=0;" edge="1" parent="1">
          <mxGeometry width="50" height="50" relative="1" as="geometry">
            <mxPoint x="209.8" y="480" as="sourcePoint" />
            <mxPoint x="209.8" y="460" as="targetPoint" />
          </mxGeometry>
        </mxCell>
        <mxCell id="v4xjxvE_m-lczTURGx-s-8" value="" style="endArrow=none;html=1;rounded=0;endFill=0;" edge="1" parent="1">
          <mxGeometry width="50" height="50" relative="1" as="geometry">
            <mxPoint x="280" y="480" as="sourcePoint" />
            <mxPoint x="280" y="460" as="targetPoint" />
          </mxGeometry>
        </mxCell>
        <mxCell id="v4xjxvE_m-lczTURGx-s-9" value="" style="endArrow=none;html=1;rounded=0;endFill=0;" edge="1" parent="1">
          <mxGeometry width="50" height="50" relative="1" as="geometry">
            <mxPoint x="499.86" y="480" as="sourcePoint" />
            <mxPoint x="500.06" y="460" as="targetPoint" />
          </mxGeometry>
        </mxCell>
        <mxCell id="v4xjxvE_m-lczTURGx-s-10" value="" style="endArrow=none;html=1;rounded=0;endFill=0;" edge="1" parent="1">
          <mxGeometry width="50" height="50" relative="1" as="geometry">
            <mxPoint x="559.8599999999999" y="480" as="sourcePoint" />
            <mxPoint x="560.06" y="460" as="targetPoint" />
          </mxGeometry>
        </mxCell>
        <mxCell id="v4xjxvE_m-lczTURGx-s-20" value="L + R" style="rounded=0;whiteSpace=wrap;html=1;fillColor=#dae8fc;strokeColor=#6c8ebf;" vertex="1" parent="1">
          <mxGeometry x="150" y="380" width="80" height="30" as="geometry" />
        </mxCell>
        <mxCell id="v4xjxvE_m-lczTURGx-s-21" value="L + R" style="rounded=0;whiteSpace=wrap;html=1;fillColor=#fff2cc;strokeColor=#d6b656;" vertex="1" parent="1">
          <mxGeometry x="440" y="380" width="80" height="30" as="geometry" />
        </mxCell>
        <mxCell id="v4xjxvE_m-lczTURGx-s-22" value="L + R" style="rounded=0;whiteSpace=wrap;html=1;fillColor=#7EA6E0;strokeColor=#6c8ebf;" vertex="1" parent="1">
          <mxGeometry x="250" y="380" width="80" height="30" as="geometry" />
        </mxCell>
        <mxCell id="v4xjxvE_m-lczTURGx-s-23" value="L + R" style="rounded=0;whiteSpace=wrap;html=1;fillColor=#FFD966;strokeColor=#d6b656;" vertex="1" parent="1">
          <mxGeometry x="540" y="380" width="80" height="30" as="geometry" />
        </mxCell>
        <mxCell id="v4xjxvE_m-lczTURGx-s-24" value="" style="endArrow=none;html=1;rounded=0;endFill=0;" edge="1" parent="1">
          <mxGeometry width="50" height="50" relative="1" as="geometry">
            <mxPoint x="209.8" y="430" as="sourcePoint" />
            <mxPoint x="209.94" y="410" as="targetPoint" />
          </mxGeometry>
        </mxCell>
        <mxCell id="v4xjxvE_m-lczTURGx-s-25" value="" style="endArrow=none;html=1;rounded=0;endFill=0;" edge="1" parent="1">
          <mxGeometry width="50" height="50" relative="1" as="geometry">
            <mxPoint x="280" y="430" as="sourcePoint" />
            <mxPoint x="280.14" y="410" as="targetPoint" />
          </mxGeometry>
        </mxCell>
        <mxCell id="v4xjxvE_m-lczTURGx-s-26" value="" style="endArrow=none;html=1;rounded=0;endFill=0;" edge="1" parent="1">
          <mxGeometry width="50" height="50" relative="1" as="geometry">
            <mxPoint x="499.86" y="430" as="sourcePoint" />
            <mxPoint x="500" y="410" as="targetPoint" />
          </mxGeometry>
        </mxCell>
        <mxCell id="v4xjxvE_m-lczTURGx-s-27" value="" style="endArrow=none;html=1;rounded=0;endFill=0;" edge="1" parent="1">
          <mxGeometry width="50" height="50" relative="1" as="geometry">
            <mxPoint x="559.8599999999999" y="430" as="sourcePoint" />
            <mxPoint x="560" y="410" as="targetPoint" />
          </mxGeometry>
        </mxCell>
        <mxCell id="v4xjxvE_m-lczTURGx-s-28" value="L + R" style="rounded=0;whiteSpace=wrap;html=1;fillColor=#dae8fc;strokeColor=#6c8ebf;" vertex="1" parent="1">
          <mxGeometry x="170" y="330" width="60" height="30" as="geometry" />
        </mxCell>
        <mxCell id="v4xjxvE_m-lczTURGx-s-30" value="L + R" style="rounded=0;whiteSpace=wrap;html=1;fillColor=#7EA6E0;strokeColor=#6c8ebf;" vertex="1" parent="1">
          <mxGeometry x="250" y="330" width="60" height="30" as="geometry" />
        </mxCell>
        <mxCell id="v4xjxvE_m-lczTURGx-s-32" value="" style="endArrow=none;html=1;rounded=0;endFill=0;" edge="1" parent="1">
          <mxGeometry width="50" height="50" relative="1" as="geometry">
            <mxPoint x="209.52" y="380" as="sourcePoint" />
            <mxPoint x="209.66" y="360" as="targetPoint" />
          </mxGeometry>
        </mxCell>
        <mxCell id="v4xjxvE_m-lczTURGx-s-33" value="" style="endArrow=none;html=1;rounded=0;endFill=0;" edge="1" parent="1">
          <mxGeometry width="50" height="50" relative="1" as="geometry">
            <mxPoint x="280" y="380" as="sourcePoint" />
            <mxPoint x="280.14" y="360" as="targetPoint" />
          </mxGeometry>
        </mxCell>
        <mxCell id="v4xjxvE_m-lczTURGx-s-34" value="" style="endArrow=none;html=1;rounded=0;endFill=0;" edge="1" parent="1">
          <mxGeometry width="50" height="50" relative="1" as="geometry">
            <mxPoint x="499.86" y="380" as="sourcePoint" />
            <mxPoint x="500" y="360" as="targetPoint" />
          </mxGeometry>
        </mxCell>
        <mxCell id="v4xjxvE_m-lczTURGx-s-35" value="" style="endArrow=none;html=1;rounded=0;endFill=0;" edge="1" parent="1">
          <mxGeometry width="50" height="50" relative="1" as="geometry">
            <mxPoint x="559.8599999999999" y="380" as="sourcePoint" />
            <mxPoint x="560" y="360" as="targetPoint" />
          </mxGeometry>
        </mxCell>
        <mxCell id="v4xjxvE_m-lczTURGx-s-39" value="dot product for CTR" style="rounded=1;whiteSpace=wrap;html=1;" vertex="1" parent="1">
          <mxGeometry x="80" y="290" width="70" height="30" as="geometry" />
        </mxCell>
        <mxCell id="v4xjxvE_m-lczTURGx-s-49" value="dot product for Final Score" style="rounded=1;whiteSpace=wrap;html=1;" vertex="1" parent="1">
          <mxGeometry x="340" y="190" width="90" height="30" as="geometry" />
        </mxCell>
        <mxCell id="v4xjxvE_m-lczTURGx-s-51" value="concat&amp;nbsp; &amp;nbsp; &amp;nbsp; &amp;nbsp; &amp;nbsp; &amp;nbsp; &amp;nbsp; &amp;nbsp; &amp;nbsp; &amp;nbsp; &amp;nbsp; &amp;nbsp; &amp;nbsp; &amp;nbsp; &amp;nbsp; &amp;nbsp; &amp;nbsp; &amp;nbsp; &amp;nbsp; &amp;nbsp;" style="rounded=1;whiteSpace=wrap;html=1;fillColor=none;dashed=1;" vertex="1" parent="1">
          <mxGeometry x="130" y="230" width="180" height="50" as="geometry" />
        </mxCell>
        <mxCell id="v4xjxvE_m-lczTURGx-s-29" value="L + R" style="rounded=0;whiteSpace=wrap;html=1;fillColor=#fff2cc;strokeColor=#d6b656;" vertex="1" parent="1">
          <mxGeometry x="460" y="330" width="60" height="30" as="geometry" />
        </mxCell>
        <mxCell id="v4xjxvE_m-lczTURGx-s-31" value="L + R" style="rounded=0;whiteSpace=wrap;html=1;fillColor=#FFD966;strokeColor=#d6b656;" vertex="1" parent="1">
          <mxGeometry x="540" y="330" width="60" height="30" as="geometry" />
        </mxCell>
        <mxCell id="v4xjxvE_m-lczTURGx-s-54" value="&amp;nbsp; &amp;nbsp; &amp;nbsp; &amp;nbsp; &amp;nbsp; &amp;nbsp; &amp;nbsp; &amp;nbsp; &amp;nbsp; &amp;nbsp; &amp;nbsp; &amp;nbsp; &amp;nbsp; &amp;nbsp; &amp;nbsp; &amp;nbsp; &amp;nbsp; &amp;nbsp; &amp;nbsp; &amp;nbsp; &amp;nbsp;concat&amp;nbsp;" style="rounded=1;whiteSpace=wrap;html=1;fillColor=none;dashed=1;" vertex="1" parent="1">
          <mxGeometry x="460" y="230" width="180" height="50" as="geometry" />
        </mxCell>
        <mxCell id="v4xjxvE_m-lczTURGx-s-55" value="dot product for CTCVR" style="rounded=1;whiteSpace=wrap;html=1;" vertex="1" parent="1">
          <mxGeometry x="620" y="290" width="70" height="30" as="geometry" />
        </mxCell>
        <mxCell id="v4xjxvE_m-lczTURGx-s-56" value="" style="endArrow=classicThin;html=1;rounded=0;exitX=0.5;exitY=0;exitDx=0;exitDy=0;entryX=0;entryY=0.5;entryDx=0;entryDy=0;endFill=1;" edge="1" parent="1" source="v4xjxvE_m-lczTURGx-s-30" target="v4xjxvE_m-lczTURGx-s-55">
          <mxGeometry width="50" height="50" relative="1" as="geometry">
            <mxPoint x="380" y="300" as="sourcePoint" />
            <mxPoint x="430" y="250" as="targetPoint" />
          </mxGeometry>
        </mxCell>
        <mxCell id="v4xjxvE_m-lczTURGx-s-57" value="" style="endArrow=classicThin;html=1;rounded=0;exitX=0.5;exitY=0;exitDx=0;exitDy=0;endFill=1;entryX=0;entryY=0.5;entryDx=0;entryDy=0;" edge="1" parent="1" source="v4xjxvE_m-lczTURGx-s-31" target="v4xjxvE_m-lczTURGx-s-55">
          <mxGeometry width="50" height="50" relative="1" as="geometry">
            <mxPoint x="490" y="300" as="sourcePoint" />
            <mxPoint x="620" y="330" as="targetPoint" />
          </mxGeometry>
        </mxCell>
        <mxCell id="v4xjxvE_m-lczTURGx-s-59" value="" style="endArrow=diamondThin;html=1;rounded=0;exitX=0.5;exitY=0;exitDx=0;exitDy=0;endFill=1;entryX=1;entryY=0.5;entryDx=0;entryDy=0;" edge="1" parent="1" source="v4xjxvE_m-lczTURGx-s-28" target="v4xjxvE_m-lczTURGx-s-39">
          <mxGeometry width="50" height="50" relative="1" as="geometry">
            <mxPoint x="160" y="265" as="sourcePoint" />
            <mxPoint x="115" y="320" as="targetPoint" />
          </mxGeometry>
        </mxCell>
        <mxCell id="v4xjxvE_m-lczTURGx-s-60" value="" style="endArrow=classicThin;html=1;rounded=0;entryX=1;entryY=0.5;entryDx=0;entryDy=0;endFill=1;exitX=0.5;exitY=0;exitDx=0;exitDy=0;" edge="1" parent="1" source="v4xjxvE_m-lczTURGx-s-29" target="v4xjxvE_m-lczTURGx-s-39">
          <mxGeometry width="50" height="50" relative="1" as="geometry">
            <mxPoint x="410" y="320" as="sourcePoint" />
            <mxPoint x="270" y="275" as="targetPoint" />
          </mxGeometry>
        </mxCell>
        <mxCell id="v4xjxvE_m-lczTURGx-s-61" value="a(L + R)" style="rounded=0;whiteSpace=wrap;html=1;fillColor=#dae8fc;strokeColor=#6c8ebf;" vertex="1" parent="1">
          <mxGeometry x="180" y="240" width="60" height="30" as="geometry" />
        </mxCell>
        <mxCell id="v4xjxvE_m-lczTURGx-s-62" value="b(L + R)" style="rounded=0;whiteSpace=wrap;html=1;fillColor=#7EA6E0;strokeColor=#6c8ebf;" vertex="1" parent="1">
          <mxGeometry x="240" y="240" width="60" height="30" as="geometry" />
        </mxCell>
        <mxCell id="v4xjxvE_m-lczTURGx-s-63" value="L + R" style="rounded=0;whiteSpace=wrap;html=1;fillColor=#fff2cc;strokeColor=#d6b656;" vertex="1" parent="1">
          <mxGeometry x="470" y="240" width="60" height="30" as="geometry" />
        </mxCell>
        <mxCell id="v4xjxvE_m-lczTURGx-s-64" value="L + R" style="rounded=0;whiteSpace=wrap;html=1;fillColor=#FFD966;strokeColor=#d6b656;" vertex="1" parent="1">
          <mxGeometry x="530" y="240" width="60" height="30" as="geometry" />
        </mxCell>
        <mxCell id="v4xjxvE_m-lczTURGx-s-68" value="" style="endArrow=classic;html=1;rounded=0;entryX=0.447;entryY=1.017;entryDx=0;entryDy=0;entryPerimeter=0;dashed=1;dashPattern=1 2;" edge="1" parent="1">
          <mxGeometry width="50" height="50" relative="1" as="geometry">
            <mxPoint x="269.83000000000004" y="330" as="sourcePoint" />
            <mxPoint x="269.94" y="281" as="targetPoint" />
          </mxGeometry>
        </mxCell>
        <mxCell id="v4xjxvE_m-lczTURGx-s-70" value="" style="endArrow=classic;html=1;rounded=0;entryX=0.447;entryY=1.017;entryDx=0;entryDy=0;entryPerimeter=0;dashed=1;dashPattern=1 2;" edge="1" parent="1">
          <mxGeometry width="50" height="50" relative="1" as="geometry">
            <mxPoint x="499.83" y="329" as="sourcePoint" />
            <mxPoint x="499.94" y="280" as="targetPoint" />
          </mxGeometry>
        </mxCell>
        <mxCell id="v4xjxvE_m-lczTURGx-s-71" value="" style="endArrow=classic;html=1;rounded=0;entryX=0.447;entryY=1.017;entryDx=0;entryDy=0;entryPerimeter=0;dashed=1;dashPattern=1 2;" edge="1" parent="1">
          <mxGeometry width="50" height="50" relative="1" as="geometry">
            <mxPoint x="559.83" y="330" as="sourcePoint" />
            <mxPoint x="559.94" y="281" as="targetPoint" />
          </mxGeometry>
        </mxCell>
        <mxCell id="v4xjxvE_m-lczTURGx-s-72" value="" style="endArrow=classic;html=1;rounded=0;entryX=0.447;entryY=1.017;entryDx=0;entryDy=0;entryPerimeter=0;dashed=1;dashPattern=1 2;" edge="1" parent="1">
          <mxGeometry width="50" height="50" relative="1" as="geometry">
            <mxPoint x="209.83" y="330" as="sourcePoint" />
            <mxPoint x="209.94" y="281" as="targetPoint" />
          </mxGeometry>
        </mxCell>
        <mxCell id="v4xjxvE_m-lczTURGx-s-73" value="" style="endArrow=classic;html=1;rounded=0;entryX=0;entryY=0.5;entryDx=0;entryDy=0;exitX=0.609;exitY=-0.023;exitDx=0;exitDy=0;exitPerimeter=0;" edge="1" parent="1" source="v4xjxvE_m-lczTURGx-s-51" target="v4xjxvE_m-lczTURGx-s-49">
          <mxGeometry width="50" height="50" relative="1" as="geometry">
            <mxPoint x="250" y="210" as="sourcePoint" />
            <mxPoint x="305" y="160" as="targetPoint" />
          </mxGeometry>
        </mxCell>
        <mxCell id="v4xjxvE_m-lczTURGx-s-74" value="" style="endArrow=classic;html=1;rounded=0;entryX=1;entryY=0.5;entryDx=0;entryDy=0;exitX=0.387;exitY=-0.012;exitDx=0;exitDy=0;exitPerimeter=0;" edge="1" parent="1" source="v4xjxvE_m-lczTURGx-s-54" target="v4xjxvE_m-lczTURGx-s-49">
          <mxGeometry width="50" height="50" relative="1" as="geometry">
            <mxPoint x="370" y="290" as="sourcePoint" />
            <mxPoint x="420" y="240" as="targetPoint" />
          </mxGeometry>
        </mxCell>
      </root>
    </mxGraphModel>
  </diagram>
</mxfile>
